<svg width="91" height="52" viewBox="0 0 91 52" fill="none" xmlns="http://www.w3.org/2000/svg">
<path d="M4.284 20.616C10.44 25.224 14.292 30.66 16.128 34.728C18.252 39.696 15.948 41.64 14.544 38.472C13.428 33.72 9.252 25.728 3.744 20.94L4.284 20.616ZM20.664 15.108C21.996 27.96 26.784 37.572 35.1 42.828L34.992 43.152C33.912 43.26 33.012 43.908 32.724 44.88C25.02 39.12 20.952 28.824 19.836 15.324L20.664 15.108ZM13.14 15L14.58 13.488L17.244 15.936C16.992 16.296 16.632 16.368 15.84 16.44C14.472 26.772 11.376 37.896 1.764 44.88L1.224 44.448C9.072 37.248 12.384 25.8 13.5 15H13.14ZM29.952 15L31.5 13.416L34.236 16.008C33.948 16.332 33.588 16.404 32.76 16.512C30.78 27.996 26.46 38.868 13.86 44.988L13.392 44.484C24.048 38.04 28.692 26.952 30.348 15H29.952ZM14.832 15V16.08H2.16L1.836 15H14.832ZM31.5 15V16.08H17.784L17.46 15H31.5Z" fill="white"/>
<path d="M38.688 34.144V33.328H42.832V34.144H38.688ZM44.1873 38V37.568L45.9313 37.392H46.4433L48.1073 37.568V38H44.1873ZM45.4993 38C45.5473 37.232 45.5633 35.44 45.5633 34.352V33.36C45.5633 32.288 45.5473 31.488 45.4993 30.688L44.0913 30.608V30.208L46.5553 29.552L46.7633 29.696L46.8753 31.504V34.352C46.8753 35.44 46.8913 37.232 46.9233 38H45.4993ZM49.4513 38V37.568L51.1633 37.392H51.6913L53.3393 37.568V38H49.4513ZM50.7633 38C50.7953 37.232 50.8113 35.472 50.8113 34.352V32.528C50.8113 30.976 50.2673 30.384 49.4193 30.384C48.6033 30.384 47.7073 30.832 46.6033 32.08L46.4593 31.52H46.6353C47.6593 30.192 48.7313 29.52 49.8993 29.52C51.2913 29.52 52.0913 30.368 52.0913 32.528V34.352C52.0913 35.472 52.1073 37.232 52.1393 38H50.7633ZM54.6833 38V37.568L56.3793 37.392H56.9073L58.5873 37.568V38H54.6833ZM55.9793 38C56.0113 37.232 56.0273 35.472 56.0273 34.352V32.528C56.0273 30.912 55.4993 30.384 54.5713 30.384C53.7873 30.384 52.8753 30.768 51.8033 31.984L51.6433 31.408H51.8193C52.8433 30.096 53.9153 29.52 55.0673 29.52C56.5233 29.52 57.3233 30.368 57.3233 32.512V34.352C57.3233 35.472 57.3393 37.232 57.3713 38H55.9793ZM63.8614 38.24C61.7334 38.24 59.8774 36.768 59.8774 33.888C59.8774 31.008 61.7974 29.52 63.8614 29.52C65.9254 29.52 67.8614 31.008 67.8614 33.888C67.8614 36.768 65.9734 38.24 63.8614 38.24ZM63.8614 37.744C65.4454 37.744 66.4214 36.4 66.4214 33.904C66.4214 31.408 65.4454 30.032 63.8614 30.032C62.2774 30.032 61.3014 31.408 61.3014 33.904C61.3014 36.4 62.2774 37.744 63.8614 37.744ZM69.2966 38V37.568L71.0566 37.376H71.7126L73.5206 37.568V38H69.2966ZM70.6086 38C70.6566 37.232 70.6726 35.44 70.6726 34.352V33.376C70.6726 32.288 70.6566 31.488 70.6086 30.688L69.2006 30.608V30.208L71.6646 29.552L71.8726 29.696L71.9846 31.952V34.352C71.9846 35.44 72.0006 37.232 72.0326 38H70.6086ZM71.9686 32.912L71.6166 32.08H71.9046C72.4006 30.512 73.5206 29.52 74.6406 29.52C75.2646 29.52 75.7766 29.776 75.9206 30.24C75.9206 30.8 75.6646 31.136 75.0886 31.136C74.6886 31.136 74.4006 30.928 74.0326 30.544L73.6646 30.192L74.4006 30.208C73.2806 30.528 72.5286 31.344 71.9686 32.912ZM80.4864 38.24C78.3584 38.24 76.5024 36.768 76.5024 33.888C76.5024 31.008 78.4224 29.52 80.4864 29.52C82.5504 29.52 84.4864 31.008 84.4864 33.888C84.4864 36.768 82.5984 38.24 80.4864 38.24ZM80.4864 37.744C82.0704 37.744 83.0464 36.4 83.0464 33.904C83.0464 31.408 82.0704 30.032 80.4864 30.032C78.9024 30.032 77.9264 31.408 77.9264 33.904C77.9264 36.4 78.9024 37.744 80.4864 37.744ZM86.0786 34.144V33.328H90.2226V34.144H86.0786Z" fill="white"/>
</svg>
