<svg width="41" height="35" viewBox="0 0 41 35" fill="none" xmlns="http://www.w3.org/2000/svg">
<path d="M1.96 27.15C2.35 27.17 2.61 27.17 2.85 27.17C3.38 27.17 7.73 27.17 8.22 27.17C8.43 27.17 8.79 27.17 9.1 27.16C9.08 27.4 9.08 27.68 9.08 27.93C9.08 28.4 9.08 32.48 9.08 32.86C9.08 33.18 9.09 33.96 9.1 34.07H8.23C8.24 33.96 8.25 33.39 8.25 32.97C8.25 32.6 8.25 27.96 8.25 27.96H2.79C2.79 27.96 2.79 32.56 2.79 32.97C2.79 33.3 2.8 33.94 2.8 34.07H1.95C1.95 33.94 1.97 33.21 1.97 32.86C1.97 32.45 1.97 28.32 1.97 27.93C1.97 27.7 1.97 27.4 1.96 27.15ZM8.58 32.72V33.5H2.39V32.72H8.58ZM18.15 26C18.4 26.36 18.76 26.97 18.96 27.37L18.42 27.62C18.22 27.21 17.88 26.61 17.61 26.23L18.15 26ZM19.24 25.6C19.51 25.97 19.89 26.59 20.08 26.96L19.54 27.2C19.32 26.77 19 26.2 18.72 25.83L19.24 25.6ZM18.81 27.99C18.73 28.14 18.63 28.37 18.58 28.53C18.31 29.53 17.69 30.89 16.81 31.97C15.9 33.08 14.7 34 12.82 34.69L12.1 34.04C13.94 33.5 15.18 32.59 16.09 31.53C16.87 30.61 17.48 29.32 17.69 28.41H13.98L14.3 27.69C14.71 27.69 17.18 27.69 17.49 27.69C17.76 27.69 17.98 27.66 18.15 27.59L18.81 27.99ZM15.46 26.48C15.3 26.74 15.12 27.08 15.02 27.27C14.43 28.37 13.38 29.8 11.78 30.87L11.08 30.35C12.81 29.32 13.79 27.87 14.23 26.97C14.33 26.8 14.48 26.43 14.54 26.18L15.46 26.48ZM21.36 30.39C23.09 29.93 24.61 29.22 25.72 28.53C26.77 27.87 27.77 27.01 28.46 26.17L29.13 26.8C28.27 27.69 27.22 28.53 26.05 29.26C24.95 29.94 23.36 30.67 21.75 31.17L21.36 30.39ZM25.56 28.94L26.42 28.68V33.25C26.42 33.62 26.44 34.12 26.49 34.31H25.5C25.53 34.12 25.56 33.62 25.56 33.25V28.94ZM32.77 26.68C33.47 27.15 34.76 28.19 35.31 28.74L34.69 29.38C34.18 28.86 32.94 27.78 32.19 27.29L32.77 26.68ZM31.91 33.38C33.65 33.12 34.95 32.51 35.9 31.92C37.45 30.95 38.66 29.47 39.24 28.23L39.72 29.09C39.04 30.33 37.88 31.69 36.37 32.64C35.36 33.27 34.1 33.89 32.43 34.2L31.91 33.38Z" fill="#7F5539"/>
<path d="M18.5 11.4583V8.33331L23.5 12.5L18.5 16.6666V13.5416H9.5V11.4583H18.5ZM10.958 15.625H13.082C13.78 17.4157 15.0537 18.8981 16.6851 19.8187C18.3165 20.7392 20.2043 21.0407 22.0255 20.6716C23.8468 20.3025 25.4883 19.2856 26.6693 17.795C27.8503 16.3044 28.4975 14.4327 28.5 12.5C28.501 10.5653 27.8558 8.69043 26.6749 7.19709C25.494 5.70374 23.8511 4.68493 22.028 4.31541C20.2048 3.94588 18.315 4.24867 16.6828 5.17183C15.0505 6.09499 13.7775 7.581 13.082 9.37498H10.958C12.232 5.14894 16.022 2.08331 20.5 2.08331C26.023 2.08331 30.5 6.74686 30.5 12.5C30.5 18.2531 26.023 22.9166 20.5 22.9166C16.022 22.9166 12.232 19.851 10.958 15.625Z" fill="#7F5539"/>
</svg>
