<svg width="31" height="35" viewBox="0 0 31 35" fill="none" xmlns="http://www.w3.org/2000/svg">
<path d="M5.57 26.14C5.55 26.37 5.53 26.71 5.52 26.95C5.39 31.03 4.29 32.9 2.32 34.27L1.59 33.68C1.91 33.51 2.31 33.23 2.61 32.95C3.86 31.82 4.68 30.13 4.7 26.97C4.7 26.74 4.68 26.37 4.64 26.14H5.57ZM9.05 28.22C9.02 28.39 9 28.57 8.99 28.7C8.96 29.67 8.83 32.57 8.38 33.53C8.18 33.96 7.86 34.14 7.31 34.14C6.81 34.14 6.23 34.11 5.71 34.07L5.61 33.24C6.15 33.31 6.67 33.36 7.1 33.36C7.38 33.36 7.57 33.27 7.68 33.03C8.06 32.26 8.19 29.8 8.19 28.73H2.92C2.52 28.73 2.12 28.74 1.76 28.77V27.93C2.11 27.96 2.52 27.98 2.91 27.98H7.85C8.12 27.98 8.31 27.96 8.48 27.93L9.05 28.22ZM11.51 29.67C11.82 29.7 12.34 29.73 12.91 29.73C13.64 29.73 17.65 29.73 18.39 29.73C18.89 29.73 19.24 29.69 19.47 29.67V30.65C19.26 30.64 18.84 30.61 18.4 30.61C17.64 30.61 13.65 30.61 12.91 30.61C12.36 30.61 11.83 30.63 11.51 30.65V29.67ZM23.86 33.12C23.86 32.56 23.86 28.14 23.86 27.31C23.86 27.02 23.84 26.58 23.79 26.26H24.77C24.73 26.57 24.7 27 24.7 27.31C24.7 28.86 24.71 32.65 24.71 33.12C24.71 33.44 24.73 33.98 24.77 34.31H23.8C23.85 33.99 23.86 33.49 23.86 33.12ZM24.52 28.89C25.84 29.27 27.86 30.04 28.97 30.58L28.62 31.43C27.48 30.82 25.61 30.11 24.52 29.77V28.89Z" fill="#7F5539"/>
<path d="M24.3256 5.74902C24.2552 5.66127 24.1672 5.59068 24.0677 5.54225C23.9683 5.49382 23.8598 5.46873 23.75 5.46875H8.62625L8.16781 2.8457C8.10502 2.48568 7.92292 2.16003 7.65325 1.92553C7.38359 1.69103 7.04347 1.56255 6.69219 1.5625H5C4.80109 1.5625 4.61032 1.64481 4.46967 1.79132C4.32902 1.93784 4.25 2.13655 4.25 2.34375C4.25 2.55095 4.32902 2.74966 4.46967 2.89618C4.61032 3.04269 4.80109 3.125 5 3.125H6.6875L9.08375 16.8252C9.15434 17.2315 9.32671 17.6112 9.58344 17.9258C9.22911 18.2705 8.97336 18.7108 8.84455 19.1977C8.71575 19.6846 8.71892 20.1991 8.85371 20.6843C8.98851 21.1694 9.24966 21.6062 9.60821 21.9462C9.96676 22.2861 10.4087 22.516 10.885 22.6103C11.3613 22.7047 11.8534 22.6597 12.3067 22.4805C12.76 22.3013 13.1568 21.9948 13.4531 21.595C13.7494 21.1952 13.9336 20.7178 13.9853 20.2156C14.037 19.7134 13.9541 19.2061 13.7459 18.75H18.0041C17.8363 19.1159 17.7495 19.5164 17.75 19.9219C17.75 20.4627 17.904 20.9913 18.1924 21.441C18.4808 21.8907 18.8908 22.2411 19.3705 22.4481C19.8501 22.6551 20.3779 22.7092 20.8871 22.6037C21.3963 22.4982 21.864 22.2378 22.2312 21.8554C22.5983 21.473 22.8483 20.9857 22.9496 20.4553C23.0508 19.9249 22.9989 19.3751 22.8002 18.8755C22.6015 18.3758 22.2651 17.9488 21.8334 17.6483C21.4017 17.3479 20.8942 17.1875 20.375 17.1875H11.2972C11.1215 17.1875 10.9515 17.1232 10.8167 17.006C10.6818 16.8887 10.5908 16.7259 10.5594 16.5459L10.2622 14.8438H21.1372C21.6641 14.8437 22.1743 14.651 22.5788 14.2992C22.9833 13.9475 23.2564 13.459 23.3506 12.9189L24.4906 6.38965C24.5099 6.2768 24.5051 6.1609 24.4766 6.05019C24.4481 5.93948 24.3966 5.83666 24.3256 5.74902ZM12.5 19.9219C12.5 20.1537 12.434 20.3802 12.3104 20.5729C12.1868 20.7656 12.0111 20.9158 11.8055 21.0045C11.6 21.0932 11.3738 21.1164 11.1555 21.0712C10.9373 21.026 10.7368 20.9144 10.5795 20.7505C10.4222 20.5866 10.315 20.3778 10.2716 20.1505C10.2282 19.9232 10.2505 19.6876 10.3356 19.4734C10.4208 19.2593 10.565 19.0763 10.75 18.9475C10.935 18.8187 11.1525 18.75 11.375 18.75C11.6734 18.75 11.9595 18.8735 12.1705 19.0932C12.3815 19.313 12.5 19.6111 12.5 19.9219ZM21.5 19.9219C21.5 20.1537 21.434 20.3802 21.3104 20.5729C21.1868 20.7656 21.0111 20.9158 20.8055 21.0045C20.6 21.0932 20.3738 21.1164 20.1555 21.0712C19.9373 21.026 19.7368 20.9144 19.5795 20.7505C19.4222 20.5866 19.315 20.3778 19.2716 20.1505C19.2282 19.9232 19.2505 19.6876 19.3356 19.4734C19.4208 19.2593 19.565 19.0763 19.75 18.9475C19.935 18.8187 20.1525 18.75 20.375 18.75C20.6734 18.75 20.9595 18.8735 21.1705 19.0932C21.3815 19.313 21.5 19.6111 21.5 19.9219ZM21.875 12.6396C21.8435 12.8202 21.7521 12.9834 21.6166 13.1007C21.4812 13.218 21.3105 13.2819 21.1344 13.2812H9.98938L8.89906 7.03125H22.8509L21.875 12.6396Z" fill="#7F5539"/>
</svg>
