<svg width="87" height="78" viewBox="0 0 87 78" fill="none" xmlns="http://www.w3.org/2000/svg">
<g clip-path="url(#clip0_330_16)">
<path d="M58.3306 41.2766C56.7383 41.2766 55.5687 40.8687 54.8219 40.0529C54.0751 39.2372 53.7017 37.8847 53.7017 35.9955C53.7017 34.4928 53.9482 32.8756 54.4414 31.1439C54.9487 29.4122 55.752 27.9309 56.8511 26.7001C57.9643 25.4549 59.3734 24.8323 61.0785 24.8323C62.1353 24.8323 62.9878 25.0685 63.636 25.5408C64.2842 26.0131 64.6083 26.7358 64.6083 27.709C64.6083 28.3244 64.4885 28.811 64.249 29.1688C64.0094 29.5123 63.636 29.6841 63.1287 29.6841C62.6214 29.6841 62.2198 29.498 61.9239 29.1259C62.1776 28.9971 62.403 28.7395 62.6003 28.3531C62.7976 27.9667 62.8962 27.5659 62.8962 27.1509C62.8962 26.7644 62.7905 26.4496 62.5791 26.2063C62.3819 25.9629 62.0577 25.8414 61.6069 25.8414C60.86 25.8414 60.1484 26.3637 59.472 27.4084C58.7957 28.4389 58.2461 29.7413 57.8233 31.3156C57.4147 32.8899 57.2104 34.407 57.2104 35.8668C57.2104 36.9544 57.3936 37.7845 57.7599 38.357C58.1263 38.9295 58.7886 39.2157 59.7468 39.2157C60.5782 39.2157 61.3462 39.0297 62.0507 38.6576C62.7553 38.2855 63.3612 37.7559 63.8685 37.0689L64.3546 37.2836C64.0024 38.1853 63.481 38.9366 62.7905 39.5377C62.1 40.1389 61.3603 40.5825 60.5712 40.8687C59.782 41.1406 59.0352 41.2766 58.3306 41.2766Z" fill="#7F5539"/>
<path d="M66.1316 41.019C65.6665 41.019 65.272 40.8544 64.948 40.5253C64.6238 40.1961 64.4618 39.7953 64.4618 39.3231C64.4618 38.8508 64.6238 38.45 64.948 38.1208C65.272 37.7774 65.6665 37.6057 66.1316 37.6057C66.5966 37.6057 66.9912 37.7774 67.3152 38.1208C67.6534 38.45 67.8226 38.8508 67.8226 39.3231C67.8226 39.7953 67.6534 40.1961 67.3152 40.5253C66.9912 40.8544 66.5966 41.019 66.1316 41.019Z" fill="#7F5539"/>
<path d="M47.5706 59.054C45.9782 59.054 44.8087 58.6462 44.0618 57.8304C43.315 57.0146 42.9415 55.6621 42.9415 53.773C42.9415 52.2703 43.1882 50.653 43.6814 48.9213C44.1887 47.1895 44.9918 45.7083 46.0909 44.4775C47.2041 43.2324 48.6133 42.6098 50.3183 42.6098C51.3751 42.6098 52.2277 42.846 52.8759 43.3183C53.5241 43.7905 53.8482 44.5132 53.8482 45.4865C53.8482 46.1019 53.7284 46.5884 53.4889 46.9463C53.2493 47.2897 52.8759 47.4615 52.3686 47.4615C51.8613 47.4615 51.4597 47.2754 51.1638 46.9033C51.4174 46.7745 51.6429 46.5169 51.8402 46.1305C52.0375 45.744 52.1361 45.3434 52.1361 44.9283C52.1361 44.5419 52.0304 44.227 51.8191 43.9838C51.6218 43.7404 51.2977 43.6188 50.8467 43.6188C50.0999 43.6188 49.3883 44.1412 48.712 45.1859C48.0355 46.2164 47.486 47.5187 47.0633 49.093C46.6546 50.6673 46.4503 52.1843 46.4503 53.6442C46.4503 54.7319 46.6334 55.5619 46.9999 56.1345C47.3662 56.7069 48.0285 56.9932 48.9867 56.9932C49.8181 56.9932 50.586 56.8071 51.2906 56.435C51.9952 56.0629 52.6011 55.5334 53.1084 54.8464L53.5945 55.0611C53.2423 55.9627 52.7209 56.7141 52.0304 57.3151C51.3399 57.9163 50.6001 58.3599 49.8111 58.6461C49.0219 58.9181 48.2751 59.054 47.5706 59.054Z" fill="#7F5539"/>
<path d="M55.3715 58.7965C54.9065 58.7965 54.5119 58.6319 54.1878 58.3027C53.8637 57.9735 53.7017 57.5728 53.7017 57.1005C53.7017 56.6282 53.8637 56.2275 54.1878 55.8983C54.5119 55.5548 54.9065 55.3831 55.3715 55.3831C55.8365 55.3831 56.2311 55.5548 56.5552 55.8983C56.8933 56.2275 57.0624 56.6282 57.0624 57.1005C57.0624 57.5728 56.8933 57.9735 56.5552 58.3027C56.2311 58.6319 55.8365 58.7965 55.3715 58.7965Z" fill="#7F5539"/>
<path d="M37.8588 77.9221C37.0133 77.9221 36.1538 77.5429 35.2801 76.7844L35.111 77.6431H32.0673L34.942 63.9896L38.0702 63.5603L35.5338 75.6036C35.9283 75.8899 36.3299 76.033 36.7386 76.033C37.5418 76.033 38.2463 75.5607 38.8523 74.6161C39.4723 73.6715 39.9514 72.4694 40.2896 71.0096C40.6277 69.5498 40.7968 68.0756 40.7968 66.5872C40.7968 65.1846 40.5221 64.1614 39.9725 63.5173C39.4371 62.859 38.6831 62.5298 37.7109 62.5298C36.654 62.5298 35.7028 62.7445 34.8574 63.1738C34.026 63.5889 33.3708 64.1899 32.8916 64.9771C32.4126 65.7643 32.173 66.6873 32.173 67.7464C32.173 68.276 32.2223 68.6481 32.3209 68.8628C32.4196 69.0632 32.4689 69.1777 32.4689 69.2062C31.7362 69.2062 31.1725 69.0488 30.778 68.7339C30.3975 68.4191 30.2073 67.9111 30.2073 67.2098C30.2073 66.2365 30.5666 65.3135 31.2853 64.4404C32.0039 63.5674 32.9621 62.8661 34.1599 62.3365C35.3717 61.807 36.6752 61.5423 38.0702 61.5423C40.0007 61.5423 41.4239 62.1219 42.3398 63.2812C43.2557 64.4404 43.7137 65.9217 43.7137 67.725C43.7137 69.3565 43.4389 70.9666 42.8894 72.5552C42.3539 74.1295 41.6353 75.4176 40.7334 76.4194C39.8316 77.4212 38.8734 77.9221 37.8588 77.9221Z" fill="#7F5539"/>
<path d="M47.182 77.729C46.1392 77.729 45.3149 77.457 44.709 76.9131C44.103 76.3693 43.8 75.5106 43.8 74.337C43.8 73.3638 43.9973 72.2833 44.3919 71.0954C44.7864 69.9075 45.4205 68.8843 46.2942 68.0256C47.1679 67.1526 48.2669 66.716 49.5915 66.716C51.3952 66.716 52.2971 67.8609 52.2971 70.1509V70.1723C52.3393 70.1866 52.4168 70.1938 52.5296 70.1938C52.9945 70.1938 53.53 70.0721 54.1359 69.8288C54.7419 69.5713 55.2914 69.2635 55.7846 68.9057L55.9749 69.4853C55.5662 69.929 55.0308 70.3083 54.3684 70.6232C53.7203 70.9237 53.0086 71.1383 52.2337 71.2672C52.1209 72.5695 51.832 73.7074 51.367 74.6806C50.902 75.6537 50.3032 76.4051 49.5704 76.9346C48.8377 77.4642 48.0415 77.729 47.182 77.729ZM48.0274 75.7969C48.3656 75.7969 48.7038 75.6036 49.042 75.2172C49.3801 74.8165 49.6761 74.2798 49.9297 73.6072C50.1834 72.9202 50.3666 72.1617 50.4793 71.3315C50.0988 71.2457 49.9086 70.9451 49.9086 70.43C49.9086 69.8432 50.127 69.4567 50.5639 69.2707C50.5357 68.7984 50.4652 68.4764 50.3525 68.3047C50.2397 68.1186 50.0425 68.0256 49.7607 68.0256C49.2956 68.0256 48.8447 68.369 48.4079 69.056C47.971 69.743 47.6188 70.5659 47.351 71.5248C47.0833 72.4836 46.9495 73.3281 46.9495 74.058C46.9495 74.7449 47.0269 75.2101 47.182 75.4534C47.3369 75.6823 47.6188 75.7969 48.0274 75.7969Z" fill="#7F5539"/>
<path d="M61.015 77.7719C60.1554 77.7719 59.5213 77.5429 59.1127 77.085C58.7181 76.6127 58.5209 76.033 58.5209 75.3461C58.5209 75.0455 58.5561 74.7092 58.6265 74.3371C58.697 73.9506 58.7674 73.5785 58.8379 73.2208C58.9225 72.8629 58.9788 72.634 59.007 72.5338C59.1198 72.0329 59.2254 71.5391 59.324 71.0525C59.4227 70.5659 59.472 70.1723 59.472 69.8718C59.472 69.1419 59.2184 68.7769 58.7111 68.7769C58.3447 68.7769 58.0206 68.963 57.7388 69.3351C57.457 69.6929 57.2315 70.1651 57.0624 70.7519L55.6251 77.6431H52.5814L54.8219 66.9092H57.8656L57.6331 68.0256C58.3377 67.2241 59.162 66.8234 60.1061 66.8234C60.8248 66.8234 61.3955 67.0237 61.8182 67.4245C62.241 67.8252 62.4523 68.4334 62.4523 69.2492C62.4523 69.6643 62.403 70.1294 62.3044 70.6446C62.2057 71.1455 62.0648 71.761 61.8816 72.4908C61.7689 72.9345 61.6632 73.371 61.5645 73.8004C61.48 74.2154 61.4378 74.5446 61.4378 74.7879C61.4378 75.0741 61.5011 75.2959 61.628 75.4534C61.7548 75.6108 61.9732 75.6895 62.2832 75.6895C62.7059 75.6895 63.0442 75.5393 63.2978 75.2387C63.5514 74.9238 63.805 74.4444 64.0587 73.8004H64.9464C64.4251 75.3746 63.8191 76.4337 63.1287 76.9776C62.4523 77.5071 61.7478 77.7719 61.015 77.7719Z" fill="#7F5539"/>
<path d="M66.1488 77.7719C65.4723 77.7719 64.9228 77.5573 64.5001 77.1279C64.0914 76.6986 63.8871 76.0545 63.8871 75.1958C63.8871 74.838 63.9435 74.3729 64.0562 73.8004L65.4935 66.9092H68.5372L67.0154 74.2082C66.9731 74.4229 66.952 74.6233 66.952 74.8094C66.952 75.3961 67.1633 75.6895 67.5861 75.6895C67.9806 75.6895 68.3188 75.525 68.6006 75.1958C68.8825 74.8523 69.1079 74.3872 69.277 73.8004L70.7143 66.9092H73.758L72.2362 74.2082C72.1798 74.4229 72.1516 74.6519 72.1516 74.8952C72.1516 75.1814 72.215 75.389 72.3419 75.5178C72.4827 75.6323 72.7082 75.6895 73.0182 75.6895C73.4128 75.6895 73.751 75.5178 74.0328 75.1743C74.3287 74.8308 74.5613 74.3729 74.7303 73.8004H75.6181C75.0967 75.3461 74.4485 76.398 73.6735 76.9561C72.9126 77.5 72.1446 77.7719 71.3695 77.7719C70.7636 77.7719 70.2775 77.6001 69.9111 77.2567C69.5588 76.9132 69.3474 76.4052 69.277 75.7325C68.7979 76.5197 68.2906 77.0563 67.7552 77.3426C67.2338 77.6288 66.6983 77.7719 66.1488 77.7719Z" fill="#7F5539"/>
<path d="M76.8204 77.7719C76.144 77.7719 75.5945 77.5572 75.1717 77.1278C74.7631 76.6985 74.5587 76.0544 74.5587 75.1957C74.5587 74.8379 74.6151 74.3728 74.7279 73.8004L75.996 67.7679H75.2986L75.4676 66.9092H76.1652L76.7992 63.9467L79.9274 63.5173L79.2085 66.9092H80.4769L80.3081 67.7679H79.0397L77.6873 74.2082C77.6303 74.4229 77.6026 74.6519 77.6026 74.8952C77.6026 75.1814 77.6658 75.3889 77.7929 75.5177C77.9339 75.6323 78.1589 75.6895 78.4687 75.6895C78.8779 75.6895 79.2578 75.5178 79.6107 75.1742C79.9629 74.8165 80.2164 74.3585 80.3713 73.8004H81.259C80.7381 75.346 80.0685 76.3979 79.2509 76.9561C78.434 77.4999 77.6234 77.7719 76.8204 77.7719Z" fill="#7F5539"/>
<path d="M82.7725 77.7719C82.0959 77.7719 81.5257 77.6431 81.0603 77.3855C80.5956 77.1135 80.2504 76.7701 80.0246 76.355C79.7996 75.9257 79.6863 75.482 79.6863 75.024C79.6863 74.5517 79.7996 74.1438 80.0246 73.8004C80.2365 73.4425 80.4969 73.1849 80.8067 73.0275C81.3562 72.0257 81.8355 71.0167 82.2439 70.0006C82.6531 68.9701 83.0407 67.8609 83.4067 66.6731L86.5353 66.2437C86.6054 68.0756 86.7249 70.0579 86.8944 72.1902C86.9645 73.049 87 73.6715 87 74.058C87 74.931 86.7819 75.6466 86.345 76.2047C85.9081 76.7629 85.3656 77.1636 84.7175 77.4069C84.0833 77.6502 83.4352 77.7719 82.7725 77.7719ZM82.0959 76.0759C82.6176 76.0759 83.0545 75.9185 83.4067 75.6036C83.7589 75.2888 83.9353 74.7807 83.9353 74.0794C83.9353 73.6501 83.8929 73.049 83.8082 72.2762C83.6672 70.6446 83.5755 69.5498 83.5339 68.9916C83.1956 70.1222 82.6246 71.4747 81.8216 73.0489C82.1452 73.2207 82.3078 73.4712 82.3078 73.8004C82.3078 74.0723 82.2161 74.3155 82.0327 74.5302C81.864 74.7449 81.6451 74.8523 81.3777 74.8523C81.0818 74.8523 80.8915 74.7593 80.8067 74.5732C80.8067 75.0884 80.9054 75.4676 81.1026 75.711C81.3138 75.9542 81.6451 76.0759 82.0959 76.0759Z" fill="#7F5539"/>
<path d="M50.3569 26.9333C46.4178 24.5582 41.7059 23.8611 37.258 24.9953C32.81 26.1296 28.9903 29.0023 26.6391 32.9815C24.2879 36.9609 23.5978 41.7207 24.7206 46.2139C25.8435 50.7072 28.6872 54.5657 32.6263 56.9409L41.4916 41.9371L50.3569 26.9333Z" fill="#E8C2CA"/>
<path d="M27.6537 65.1377C24.6135 63.3222 21.9592 60.9168 19.8435 58.0603C17.7278 55.2038 16.1926 51.9526 15.3264 48.494C14.4602 45.0354 14.2801 41.4379 14.7965 37.9086C15.3129 34.3794 16.5156 30.9883 18.3352 27.9308C20.1548 24.8732 22.5554 22.2096 25.3987 20.0936C28.242 17.9774 31.4716 16.4507 34.9017 15.6012C38.3317 14.7518 41.8942 14.5964 45.3839 15.1441C48.8737 15.6919 52.2216 16.9318 55.2348 18.7926L50.5671 26.5061C48.5614 25.2676 46.3329 24.4423 44.01 24.0776C41.6871 23.7131 39.3157 23.8165 37.0326 24.3819C34.7494 24.9473 32.5996 25.9636 30.7071 27.3722C28.8144 28.7807 27.2165 30.5537 26.0053 32.5889C24.7941 34.6241 23.9935 36.8814 23.6498 39.2306C23.306 41.5798 23.4259 43.9744 24.0025 46.2766C24.5791 48.5787 25.6009 50.7429 27.0093 52.6443C28.4175 54.5457 30.1844 56.1468 32.208 57.3553L27.6537 65.1377Z" fill="#D1B3C4"/>
<path d="M20.2838 77.9463C10.8518 72.2563 4.03984 63.0183 1.34281 52.26C-1.35423 41.5018 0.283985 30.102 5.89794 20.5625C11.5119 11.0231 20.643 4.12314 31.2873 1.377C41.9316 -1.36915 53.2197 0.262811 62.6742 5.91475L55.6114 17.9715C49.3181 14.2093 41.8042 13.123 34.719 14.951C27.6337 16.7789 21.5557 21.3718 17.8188 27.7216C14.082 34.0715 12.9915 41.6596 14.7868 48.8207C16.582 55.9818 21.1164 62.1309 27.3946 65.9187L20.2838 77.9463Z" fill="#B392AC"/>
</g>
<defs>
<clipPath id="clip0_330_16">
<rect width="87" height="78" fill="white"/>
</clipPath>
</defs>
</svg>
