<svg width="221" height="14" viewBox="0 0 221 14" fill="none" xmlns="http://www.w3.org/2000/svg">
<path d="M0.16 10H5.632V9.04H0.652L0.676 9.244C1.456 8.488 2.224 7.72 2.632 7.348C4.564 5.656 5.308 4.72 5.308 3.616C5.308 2.272 4.468 1.36 2.812 1.36C1.492 1.36 0.364 2.02 0.124 3.22C0.232 3.448 0.436 3.58 0.676 3.58C0.952 3.58 1.204 3.412 1.324 2.884L1.696 1.768L1.144 2.092C1.624 1.84 2.032 1.732 2.452 1.732C3.508 1.732 4.12 2.512 4.12 3.592C4.12 4.66 3.616 5.488 2.284 6.952C1.708 7.588 0.928 8.44 0.16 9.292V10ZM9.14284 5.8C9.14284 2.68 9.93484 1.732 10.7748 1.732C11.6028 1.732 12.4068 2.692 12.4068 5.8C12.4068 8.86 11.6028 9.808 10.7748 9.808C9.93484 9.808 9.14284 8.86 9.14284 5.8ZM10.7748 1.36C9.32284 1.36 8.00284 2.656 8.00284 5.8C8.00284 8.908 9.32284 10.192 10.7748 10.192C12.2268 10.192 13.5468 8.908 13.5468 5.8C13.5468 2.656 12.2268 1.36 10.7748 1.36ZM15.9897 10H21.4617V9.04H16.4817L16.5057 9.244C17.2857 8.488 18.0537 7.72 18.4617 7.348C20.3937 5.656 21.1377 4.72 21.1377 3.616C21.1377 2.272 20.2977 1.36 18.6417 1.36C17.3217 1.36 16.1937 2.02 15.9537 3.22C16.0617 3.448 16.2657 3.58 16.5057 3.58C16.7817 3.58 17.0337 3.412 17.1537 2.884L17.5257 1.768L16.9737 2.092C17.4537 1.84 17.8617 1.732 18.2817 1.732C19.3377 1.732 19.9497 2.512 19.9497 3.592C19.9497 4.66 19.4457 5.488 18.1137 6.952C17.5377 7.588 16.7577 8.44 15.9897 9.292V10ZM25.4645 5.368V5.788H26.0045C27.4085 5.788 28.1285 6.496 28.1285 7.792C28.1285 9.052 27.3965 9.808 26.0645 9.808C25.5605 9.808 25.2005 9.688 24.8045 9.472L25.2965 9.856L24.9845 8.692C24.8765 8.188 24.6845 8.008 24.3605 8.008C24.1085 8.008 23.9045 8.14 23.8085 8.404C24.0365 9.568 24.9485 10.192 26.4005 10.192C28.1405 10.192 29.3285 9.22 29.3285 7.78C29.3285 6.472 28.4765 5.608 26.4845 5.5V5.644C28.2365 5.452 29.0645 4.552 29.0645 3.436C29.0645 2.224 28.1765 1.36 26.5685 1.36C25.3805 1.36 24.2765 1.876 24.0965 3.1C24.1805 3.316 24.3725 3.412 24.5885 3.412C24.9005 3.412 25.1285 3.256 25.2365 2.824L25.5485 1.732L24.9965 2.056C25.4645 1.84 25.8605 1.732 26.2925 1.732C27.3245 1.732 27.8885 2.38 27.8885 3.46C27.8885 4.72 27.0845 5.368 25.9445 5.368H25.4645ZM36.018 10H37.878V9.484H37.734L36.018 9.64V10ZM37.218 10H38.526C38.49 8.656 38.49 7.288 38.49 5.704V5.368C38.49 3.928 38.49 2.56 38.526 1.228H37.218C37.242 2.572 37.242 3.94 37.242 5.368V5.704C37.242 7.312 37.242 8.668 37.218 10ZM37.878 10H39.498C42.342 10 44.07 8.32 44.07 5.608C44.07 2.836 42.426 1.228 39.678 1.228H37.878V1.636H39.522C41.598 1.636 42.762 3.016 42.762 5.62C42.762 8.092 41.598 9.604 39.402 9.604H37.878V10ZM36.018 1.6L37.734 1.732H37.878V1.228H36.018V1.6ZM49.5947 10.192C50.7107 10.192 51.5387 9.676 52.0547 8.824L51.8627 8.656C51.3827 9.232 50.7947 9.544 49.9427 9.544C48.6347 9.544 47.6987 8.692 47.6987 6.736C47.6987 4.936 48.4787 3.952 49.4627 3.952C50.3867 3.952 50.9387 4.648 50.9387 5.68C50.9387 6.22 50.8067 6.436 50.3627 6.436H46.9907V6.82H51.9827C52.0307 6.628 52.0547 6.388 52.0547 6.1C52.0547 4.672 51.1187 3.568 49.5107 3.568C47.8787 3.568 46.4627 4.816 46.4627 6.88C46.4627 9.064 47.7707 10.192 49.5947 10.192ZM56.4552 10.192C58.1232 10.192 59.0112 9.376 59.0112 8.272C59.0112 7.396 58.5192 6.832 57.3072 6.412L56.6832 6.196C55.7952 5.908 55.4592 5.584 55.4592 5.02C55.4592 4.396 55.9272 3.964 56.8152 3.964C57.3192 3.964 57.7152 4.108 58.2072 4.444V4.06L57.7872 3.976L58.1232 5.428H58.6392L58.6992 4.096C58.0752 3.736 57.5352 3.568 56.8032 3.568C55.3032 3.568 54.4632 4.36 54.4632 5.416C54.4632 6.34 55.0752 6.88 56.0712 7.216L56.7072 7.444C57.6792 7.756 57.9672 8.104 57.9672 8.668C57.9672 9.352 57.4392 9.784 56.3952 9.784C55.7112 9.784 55.2672 9.628 54.7992 9.316V9.748L55.2792 9.784L54.9672 8.224H54.4032L54.3792 9.688C55.0392 10.012 55.6512 10.192 56.4552 10.192ZM61.2368 10H64.2968V9.664L63.0248 9.532H62.5328L61.2368 9.664V10ZM62.1848 10H63.4328C63.3968 9.412 63.3848 8.056 63.3848 7.24V5.416L63.4208 3.688L63.2768 3.592L61.1528 4.108V4.42L62.1848 4.468C62.2088 5.068 62.2328 5.668 62.2328 6.472V7.24C62.2328 8.056 62.2088 9.412 62.1848 10ZM62.7248 2.14C63.1328 2.14 63.4808 1.84 63.4808 1.408C63.4808 0.987999 63.1328 0.676 62.7248 0.676C62.3048 0.676 61.9688 0.987999 61.9688 1.408C61.9688 1.84 62.3048 2.14 62.7248 2.14ZM68.9758 13.12C71.2438 13.12 72.4918 11.992 72.4918 10.84C72.4918 9.82 71.7958 9.196 70.2478 9.196H68.4838C67.8358 9.196 67.5718 8.932 67.5718 8.524C67.5718 8.14 67.7518 7.876 68.1358 7.456L67.8838 7.336V7.444C67.1158 7.996 66.8278 8.464 66.8278 8.98C66.8278 9.532 67.1398 9.904 67.7638 10.072V10.108C68.0518 10.192 68.3278 10.204 68.7718 10.204H70.2238C71.1958 10.204 71.5078 10.66 71.5078 11.164C71.5078 12.04 70.6558 12.676 68.9998 12.676C67.8838 12.676 67.2478 12.22 67.2478 11.344C67.2478 10.78 67.4998 10.444 68.0758 9.988L68.0278 9.88C66.9598 10.288 66.4198 10.816 66.4198 11.536C66.4198 12.448 67.1038 13.12 68.9758 13.12ZM69.1438 7.864C70.6678 7.864 71.5798 6.988 71.5798 5.728C71.5798 5.104 71.3758 4.588 71.0038 4.228L70.9678 4.192C70.5838 3.796 69.9598 3.568 69.1438 3.568C67.6198 3.568 66.7198 4.432 66.7198 5.728C66.7198 6.988 67.6078 7.864 69.1438 7.864ZM69.1318 7.504C68.3038 7.504 67.7878 6.796 67.7878 5.728C67.7878 4.624 68.3278 3.928 69.1558 3.928C69.9718 3.928 70.5118 4.612 70.5118 5.716C70.5118 6.784 69.9718 7.504 69.1318 7.504ZM70.5958 4.348L72.5518 4.432V3.724L72.3478 3.592L70.6678 4.144H70.5958V4.348ZM74.5581 10H77.5941V9.664L76.3461 9.532H75.8421L74.5581 9.664V10ZM75.4941 10H76.7421C76.7181 9.412 76.7061 8.056 76.7061 7.24V5.08L76.6221 3.688L76.4661 3.592L74.4741 4.12V4.432L75.4941 4.492C75.5301 5.08 75.5421 5.656 75.5421 6.46V7.24C75.5421 8.056 75.5301 9.412 75.4941 10ZM78.6501 10H81.6981V9.664L80.4261 9.532H79.9341L78.6501 9.664V10ZM79.5861 10H80.8221C80.7981 9.412 80.7861 8.092 80.7861 7.24V5.836C80.7861 4.228 80.1261 3.568 79.0581 3.568C78.2181 3.568 77.3781 3.976 76.5021 5.068H76.3581L76.4541 5.5C77.2821 4.564 78.0381 4.252 78.5781 4.252C79.2501 4.252 79.6221 4.66 79.6221 5.788V7.24C79.6221 8.092 79.6101 9.412 79.5861 10ZM88.1523 10H91.8243V9.64L90.1083 9.484H89.8323L88.1523 9.64V10ZM89.3403 10H90.6483C90.6243 8.656 90.6243 7.288 90.6243 5.608V5.308C90.6243 3.928 90.6243 2.56 90.6483 1.228H89.3403C89.3763 2.572 89.3763 3.94 89.3763 5.308V5.932C89.3763 7.312 89.3763 8.668 89.3403 10ZM90.0003 5.668H95.3883V5.26H90.0003V5.668ZM93.5403 10H97.2123V9.64L95.5323 9.484H95.2563L93.5403 9.64V10ZM94.7163 10H96.0243C96.0003 8.656 96.0003 7.288 96.0003 5.932V5.308C96.0003 3.928 96.0003 2.56 96.0243 1.228H94.7163C94.7643 2.572 94.7643 3.94 94.7643 5.308V5.608C94.7643 7.312 94.7643 8.668 94.7163 10ZM88.1523 1.6L89.8323 1.732H90.1083L91.8243 1.6V1.228H88.1523V1.6ZM93.5403 1.6L95.2563 1.732H95.5323L97.2123 1.6V1.228H93.5403V1.6ZM102.29 10.192C103.958 10.192 105.362 9.04 105.362 6.868C105.362 4.72 103.898 3.568 102.29 3.568C100.682 3.568 99.2181 4.72 99.2181 6.868C99.2181 9.016 100.61 10.192 102.29 10.192ZM102.29 9.808C101.162 9.808 100.478 8.8 100.478 6.892C100.478 4.972 101.162 3.952 102.29 3.952C103.418 3.952 104.102 4.972 104.102 6.892C104.102 8.8 103.418 9.808 102.29 9.808ZM110.205 10.192C111.201 10.192 112.005 9.604 112.617 8.764H113.001L112.689 8.26C112.137 8.992 111.465 9.448 110.733 9.448C109.989 9.448 109.569 9.028 109.569 7.816V5.416L109.629 3.784L109.497 3.652L107.469 3.88V4.192L108.729 4.372L108.429 4.156L108.405 7.768C108.381 9.556 109.053 10.192 110.205 10.192ZM112.533 10.132L114.537 10.012V9.676L113.649 9.58V5.416L113.697 3.784L113.577 3.652L111.573 3.892V4.204L112.509 4.312L112.485 8.632V8.656L112.533 10.132ZM118.942 10.192C120.61 10.192 121.498 9.376 121.498 8.272C121.498 7.396 121.006 6.832 119.794 6.412L119.17 6.196C118.282 5.908 117.946 5.584 117.946 5.02C117.946 4.396 118.414 3.964 119.302 3.964C119.806 3.964 120.202 4.108 120.694 4.444V4.06L120.274 3.976L120.61 5.428H121.126L121.186 4.096C120.562 3.736 120.022 3.568 119.29 3.568C117.79 3.568 116.95 4.36 116.95 5.416C116.95 6.34 117.562 6.88 118.558 7.216L119.194 7.444C120.166 7.756 120.454 8.104 120.454 8.668C120.454 9.352 119.926 9.784 118.882 9.784C118.198 9.784 117.754 9.628 117.286 9.316V9.748L117.766 9.784L117.454 8.224H116.89L116.866 9.688C117.526 10.012 118.138 10.192 118.942 10.192ZM126.903 10.192C128.019 10.192 128.847 9.676 129.363 8.824L129.171 8.656C128.691 9.232 128.103 9.544 127.251 9.544C125.943 9.544 125.007 8.692 125.007 6.736C125.007 4.936 125.787 3.952 126.771 3.952C127.695 3.952 128.247 4.648 128.247 5.68C128.247 6.22 128.115 6.436 127.671 6.436H124.299V6.82H129.291C129.339 6.628 129.363 6.388 129.363 6.1C129.363 4.672 128.427 3.568 126.819 3.568C125.187 3.568 123.771 4.816 123.771 6.88C123.771 9.064 125.079 10.192 126.903 10.192ZM135.934 10H139.642V9.64L137.938 9.484H137.65L135.934 9.64V10ZM137.134 10H138.43C138.394 8.656 138.394 7.288 138.394 5.836V5.572C138.394 3.916 138.394 2.572 138.43 1.228H137.134C137.158 2.572 137.158 3.94 137.158 5.308V5.932C137.158 7.312 137.158 8.668 137.134 10ZM142.774 10.132C143.242 10.132 143.554 10.084 143.878 10V9.64L142.21 9.532L142.798 9.808L142.114 7.372C141.838 6.256 141.406 5.752 139.942 5.644V5.776C141.898 5.644 142.786 4.66 142.786 3.484C142.786 2.044 141.694 1.228 139.726 1.228H137.794V1.636H139.51C140.926 1.636 141.598 2.332 141.598 3.496C141.598 4.612 140.866 5.5 139.522 5.5H137.794V5.884H139.246C140.278 5.884 140.59 6.268 140.842 7.264L141.406 9.232C141.526 9.88 141.91 10.132 142.774 10.132ZM135.934 1.6L137.65 1.732H137.794V1.228H135.934V1.6ZM148.749 10.192C149.865 10.192 150.693 9.676 151.209 8.824L151.017 8.656C150.537 9.232 149.949 9.544 149.097 9.544C147.789 9.544 146.853 8.692 146.853 6.736C146.853 4.936 147.633 3.952 148.617 3.952C149.541 3.952 150.093 4.648 150.093 5.68C150.093 6.22 149.961 6.436 149.517 6.436H146.145V6.82H151.137C151.185 6.628 151.209 6.388 151.209 6.1C151.209 4.672 150.273 3.568 148.665 3.568C147.033 3.568 145.617 4.816 145.617 6.88C145.617 9.064 146.925 10.192 148.749 10.192ZM153.402 10H156.438V9.664L155.19 9.532H154.686L153.402 9.664V10ZM154.338 10H155.586C155.562 9.412 155.55 8.056 155.55 7.24V5.08L155.466 3.688L155.31 3.592L153.318 4.12V4.432L154.338 4.492C154.374 5.08 154.386 5.656 154.386 6.46V7.24C154.386 8.056 154.374 9.412 154.338 10ZM157.494 10H160.542V9.664L159.27 9.532H158.778L157.494 9.664V10ZM158.43 10H159.666C159.642 9.412 159.63 8.092 159.63 7.24V5.836C159.63 4.228 158.97 3.568 157.902 3.568C157.062 3.568 156.222 3.976 155.346 5.068H155.202L155.298 5.5C156.126 4.564 156.882 4.252 157.422 4.252C158.094 4.252 158.466 4.66 158.466 5.788V7.24C158.466 8.092 158.454 9.412 158.43 10ZM165.749 10.192C167.417 10.192 168.821 9.04 168.821 6.868C168.821 4.72 167.357 3.568 165.749 3.568C164.141 3.568 162.677 4.72 162.677 6.868C162.677 9.016 164.069 10.192 165.749 10.192ZM165.749 9.808C164.621 9.808 163.937 8.8 163.937 6.892C163.937 4.972 164.621 3.952 165.749 3.952C166.877 3.952 167.561 4.972 167.561 6.892C167.561 8.8 166.877 9.808 165.749 9.808ZM173.581 10.06H174.121L176.497 3.748H176.005L174.193 8.968L174.133 9.124H174.337L172.333 3.748H171.037L173.581 10.06ZM170.437 4.096L171.613 4.216H172.249L173.545 4.096V3.748H170.437V4.096ZM174.805 4.096L175.981 4.216H176.197L177.169 4.096V3.748H174.805V4.096ZM180.469 10.192C181.393 10.192 181.909 9.772 182.641 8.98H182.965L182.833 8.392C181.945 9.304 181.477 9.556 180.997 9.556C180.349 9.556 179.917 9.184 179.917 8.44C179.917 7.744 180.325 7.216 181.285 6.856C181.789 6.664 182.485 6.484 183.133 6.316V6.016C182.485 6.16 181.681 6.364 181.033 6.568C179.377 7.048 178.801 7.66 178.801 8.62C178.801 9.616 179.509 10.192 180.469 10.192ZM183.721 10.18C184.249 10.18 184.621 9.964 184.897 9.508L184.705 9.328C184.489 9.568 184.357 9.652 184.165 9.652C183.841 9.652 183.685 9.448 183.685 8.752V5.74C183.685 4.204 183.001 3.568 181.549 3.568C180.097 3.568 179.185 4.18 178.969 5.188C179.041 5.488 179.245 5.644 179.557 5.644C179.881 5.644 180.133 5.464 180.193 4.96L180.361 4.024L179.773 4.336C180.325 4.06 180.757 3.952 181.213 3.952C182.149 3.952 182.545 4.3 182.545 5.62V8.824C182.617 9.664 182.977 10.18 183.721 10.18ZM188.106 4.204H190.362V3.748H188.106V4.204ZM189.054 10.192C189.738 10.192 190.23 9.952 190.566 9.496L190.398 9.292C190.074 9.496 189.846 9.604 189.498 9.604C188.982 9.604 188.682 9.304 188.682 8.572V3.94L188.73 1.852H187.95L187.542 3.88L187.77 3.712L186.366 3.832V4.204H187.518V7.42C187.518 7.876 187.506 8.14 187.506 8.548C187.506 9.664 188.01 10.192 189.054 10.192ZM192.402 10H195.462V9.664L194.19 9.532H193.698L192.402 9.664V10ZM193.35 10H194.598C194.562 9.412 194.55 8.056 194.55 7.24V5.416L194.586 3.688L194.442 3.592L192.318 4.108V4.42L193.35 4.468C193.374 5.068 193.398 5.668 193.398 6.472V7.24C193.398 8.056 193.374 9.412 193.35 10ZM193.89 2.14C194.298 2.14 194.646 1.84 194.646 1.408C194.646 0.987999 194.298 0.676 193.89 0.676C193.47 0.676 193.134 0.987999 193.134 1.408C193.134 1.84 193.47 2.14 193.89 2.14ZM200.753 10.192C202.421 10.192 203.825 9.04 203.825 6.868C203.825 4.72 202.361 3.568 200.753 3.568C199.145 3.568 197.681 4.72 197.681 6.868C197.681 9.016 199.073 10.192 200.753 10.192ZM200.753 9.808C199.625 9.808 198.941 8.8 198.941 6.892C198.941 4.972 199.625 3.952 200.753 3.952C201.881 3.952 202.565 4.972 202.565 6.892C202.565 8.8 201.881 9.808 200.753 9.808ZM206.064 10H209.1V9.664L207.852 9.532H207.348L206.064 9.664V10ZM207 10H208.248C208.224 9.412 208.212 8.056 208.212 7.24V5.08L208.128 3.688L207.972 3.592L205.98 4.12V4.432L207 4.492C207.036 5.08 207.048 5.656 207.048 6.46V7.24C207.048 8.056 207.036 9.412 207 10ZM210.156 10H213.204V9.664L211.932 9.532H211.44L210.156 9.664V10ZM211.092 10H212.328C212.304 9.412 212.292 8.092 212.292 7.24V5.836C212.292 4.228 211.632 3.568 210.564 3.568C209.724 3.568 208.884 3.976 208.008 5.068H207.864L207.96 5.5C208.788 4.564 209.544 4.252 210.084 4.252C210.756 4.252 211.128 4.66 211.128 5.788V7.24C211.128 8.092 211.116 9.412 211.092 10ZM217.487 10.192C219.155 10.192 220.043 9.376 220.043 8.272C220.043 7.396 219.551 6.832 218.339 6.412L217.715 6.196C216.827 5.908 216.491 5.584 216.491 5.02C216.491 4.396 216.959 3.964 217.847 3.964C218.351 3.964 218.747 4.108 219.239 4.444V4.06L218.819 3.976L219.155 5.428H219.671L219.731 4.096C219.107 3.736 218.567 3.568 217.835 3.568C216.335 3.568 215.495 4.36 215.495 5.416C215.495 6.34 216.107 6.88 217.103 7.216L217.739 7.444C218.711 7.756 218.999 8.104 218.999 8.668C218.999 9.352 218.471 9.784 217.427 9.784C216.743 9.784 216.299 9.628 215.831 9.316V9.748L216.311 9.784L215.999 8.224H215.435L215.411 9.688C216.071 10.012 216.683 10.192 217.487 10.192Z" fill="white"/>
</svg>
