<svg width="59" height="52" viewBox="0 0 59 52" fill="none" xmlns="http://www.w3.org/2000/svg">
<g clip-path="url(#clip0_126_4)">
<path d="M39.5575 27.5177C38.4777 27.5177 37.6845 27.2458 37.1781 26.7019C36.6716 26.1581 36.4183 25.2565 36.4183 23.997C36.4183 22.9952 36.5856 21.917 36.92 20.7626C37.264 19.6081 37.8088 18.6205 38.5541 17.8C39.3091 16.9699 40.2647 16.5549 41.421 16.5549C42.1377 16.5549 42.7158 16.7123 43.1554 17.0272C43.595 17.342 43.8148 17.8238 43.8148 18.4726C43.8148 18.8829 43.7335 19.2073 43.5711 19.4459C43.4087 19.6749 43.1554 19.7894 42.8114 19.7894C42.4674 19.7894 42.195 19.6653 41.9943 19.4173C42.1664 19.3314 42.3193 19.1596 42.4531 18.902C42.5868 18.6444 42.6537 18.3773 42.6537 18.1005C42.6537 17.8429 42.582 17.633 42.4387 17.4708C42.3049 17.3086 42.0851 17.2275 41.7793 17.2275C41.2728 17.2275 40.7903 17.5758 40.3316 18.2723C39.8729 18.9593 39.5002 19.8275 39.2135 20.877C38.9364 21.9266 38.7978 22.9379 38.7978 23.9112C38.7978 24.6363 38.922 25.1897 39.1705 25.5713C39.419 25.953 39.8681 26.1438 40.5179 26.1438C41.0817 26.1438 41.6025 26.0198 42.0803 25.7717C42.5581 25.5236 42.9691 25.1706 43.3131 24.7126L43.6428 24.8557C43.4039 25.4568 43.0503 25.9577 42.582 26.3585C42.1138 26.7592 41.6121 27.055 41.077 27.2458C40.5418 27.4271 40.0353 27.5177 39.5575 27.5177Z" fill="#7F5539"/>
<path d="M44.8479 27.346C44.5325 27.346 44.265 27.2363 44.0452 27.0169C43.8254 26.7974 43.7155 26.5302 43.7155 26.2154C43.7155 25.9005 43.8254 25.6334 44.0452 25.4139C44.265 25.1849 44.5325 25.0704 44.8479 25.0704C45.1632 25.0704 45.4309 25.1849 45.6506 25.4139C45.88 25.6334 45.9947 25.9005 45.9947 26.2154C45.9947 26.5302 45.88 26.7974 45.6506 27.0169C45.4309 27.2363 45.1632 27.346 44.8479 27.346Z" fill="#7F5539"/>
<path d="M32.2604 39.3694C31.1806 39.3694 30.3874 39.0975 29.8809 38.5536C29.3745 38.0097 29.1212 37.1081 29.1212 35.8487C29.1212 34.8469 29.2885 33.7687 29.623 32.6142C29.967 31.4597 30.5117 30.4722 31.257 29.6517C32.012 28.8216 32.9676 28.4066 34.1239 28.4066C34.8406 28.4066 35.4187 28.564 35.8583 28.8789C36.2979 29.1937 36.5177 29.6755 36.5177 30.3243C36.5177 30.7346 36.4365 31.059 36.274 31.2975C36.1115 31.5265 35.8583 31.641 35.5143 31.641C35.1703 31.641 34.8979 31.517 34.6973 31.2689C34.8692 31.183 35.0222 31.0113 35.1559 30.7537C35.2897 30.4961 35.3566 30.2289 35.3566 29.9522C35.3566 29.6946 35.285 29.4847 35.1416 29.3225C35.0078 29.1603 34.788 29.0792 34.4822 29.0792C33.9757 29.0792 33.4932 29.4275 33.0345 30.124C32.5758 30.811 32.2031 31.6792 31.9164 32.7287C31.6393 33.7782 31.5007 34.7896 31.5007 35.7628C31.5007 36.4879 31.6249 37.0413 31.8734 37.423C32.1219 37.8046 32.571 37.9955 33.2208 37.9955C33.7846 37.9955 34.3054 37.8714 34.7832 37.6233C35.261 37.3753 35.672 37.0223 36.016 36.5643L36.3457 36.7074C36.1068 37.3085 35.7532 37.8094 35.285 38.2101C34.8167 38.6109 34.315 38.9066 33.7799 39.0974C33.2447 39.2788 32.7382 39.3694 32.2604 39.3694Z" fill="#7F5539"/>
<path d="M37.5507 39.1976C37.2354 39.1976 36.9678 39.0879 36.748 38.8684C36.5282 38.6489 36.4183 38.3818 36.4183 38.067C36.4183 37.7521 36.5282 37.485 36.748 37.2655C36.9678 37.0365 37.2354 36.922 37.5507 36.922C37.8661 36.922 38.1337 37.0365 38.3535 37.2655C38.5828 37.485 38.6975 37.7521 38.6975 38.067C38.6975 38.3818 38.5828 38.6489 38.3535 38.8684C38.1337 39.0879 37.8661 39.1976 37.5507 39.1976Z" fill="#7F5539"/>
<path d="M25.6744 51.9481C25.101 51.9481 24.5181 51.6953 23.9256 51.1896L23.8109 51.762H21.7468L23.6963 42.6597L25.8177 42.3735L24.0976 50.4024C24.3652 50.5932 24.6376 50.6887 24.9147 50.6887C25.4594 50.6887 25.9372 50.3738 26.3481 49.7441C26.7686 49.1144 27.0935 48.3129 27.3228 47.3397C27.5521 46.3665 27.6668 45.3837 27.6668 44.3914C27.6668 43.4564 27.4805 42.7742 27.1078 42.3449C26.7447 41.906 26.2334 41.6866 25.574 41.6866C24.8573 41.6866 24.2123 41.8296 23.639 42.1159C23.0751 42.3926 22.6308 42.7933 22.3058 43.3181C21.9809 43.8428 21.8185 44.4582 21.8185 45.1643C21.8185 45.5173 21.8519 45.7654 21.9188 45.9085C21.9857 46.0421 22.0192 46.1184 22.0192 46.1375C21.5223 46.1375 21.14 46.0326 20.8724 45.8226C20.6144 45.6127 20.4854 45.274 20.4854 44.8065C20.4854 44.1577 20.7291 43.5423 21.2165 42.9603C21.7038 42.3783 22.3537 41.9107 23.1659 41.5577C23.9877 41.2047 24.8717 41.0282 25.8177 41.0282C27.1269 41.0282 28.0921 41.4146 28.7132 42.1875C29.3344 42.9603 29.6449 43.9478 29.6449 45.15C29.6449 46.2377 29.4586 47.3111 29.0859 48.3702C28.7228 49.4197 28.2354 50.2784 27.6238 50.9463C27.0123 51.6141 26.3624 51.9481 25.6744 51.9481Z" fill="#7F5539"/>
<path d="M31.997 51.8193C31.2898 51.8193 30.7308 51.638 30.3199 51.2754C29.9089 50.9129 29.7035 50.3404 29.7035 49.558C29.7035 48.9092 29.8373 48.1889 30.1048 47.397C30.3724 46.605 30.8024 45.9229 31.3949 45.3504C31.9874 44.7684 32.7328 44.4774 33.631 44.4774C34.8543 44.4774 35.4658 45.2406 35.4658 46.7673V46.7815C35.4945 46.7911 35.5471 46.7959 35.6235 46.7959C35.9388 46.7959 36.302 46.7148 36.7129 46.5526C37.1238 46.3809 37.4965 46.1757 37.831 45.9371L37.96 46.3236C37.6829 46.6194 37.3197 46.8722 36.8706 47.0821C36.431 47.2825 35.9484 47.4256 35.4228 47.5115C35.3464 48.3797 35.1505 49.1383 34.8351 49.7871C34.5198 50.4358 34.1137 50.9368 33.6167 51.2898C33.1198 51.6428 32.5799 51.8193 31.997 51.8193ZM32.5703 50.5313C32.7997 50.5313 33.029 50.4025 33.2584 50.1448C33.4877 49.8777 33.6884 49.5199 33.8604 49.0715C34.0324 48.6135 34.1567 48.1078 34.2331 47.5544C33.9751 47.4971 33.8461 47.2968 33.8461 46.9533C33.8461 46.5621 33.9942 46.3045 34.2904 46.1805C34.2713 45.8656 34.2235 45.6509 34.1471 45.5365C34.0706 45.4124 33.9369 45.3504 33.7457 45.3504C33.4304 45.3504 33.1246 45.5794 32.8283 46.0374C32.5321 46.4953 32.2932 47.0439 32.1116 47.6832C31.9301 48.3224 31.8393 48.8854 31.8393 49.372C31.8393 49.83 31.8918 50.1401 31.997 50.3023C32.1021 50.4549 32.2932 50.5313 32.5703 50.5313Z" fill="#7F5539"/>
<path d="M41.378 51.8479C40.7951 51.8479 40.3651 51.6953 40.0879 51.39C39.8204 51.0751 39.6866 50.6887 39.6866 50.2307C39.6866 50.0303 39.7105 49.8061 39.7582 49.558C39.806 49.3004 39.8538 49.0523 39.9016 48.8138C39.959 48.5753 39.9972 48.4226 40.0163 48.3558C40.0927 48.0219 40.1644 47.6927 40.2313 47.3683C40.2982 47.0439 40.3316 46.7815 40.3316 46.5811C40.3316 46.0946 40.1596 45.8513 39.8156 45.8513C39.5671 45.8513 39.3473 45.9753 39.1562 46.2234C38.9651 46.4619 38.8122 46.7767 38.6975 47.1679L37.7228 51.762H35.6587L37.1781 44.6061H39.2422L39.0846 45.3504C39.5624 44.8161 40.1214 44.5489 40.7616 44.5489C41.249 44.5489 41.636 44.6825 41.9227 44.9496C42.2094 45.2168 42.3528 45.6223 42.3528 46.1661C42.3528 46.4428 42.3193 46.7529 42.2524 47.0964C42.1855 47.4303 42.09 47.8406 41.9657 48.3272C41.8893 48.623 41.8176 48.914 41.7507 49.2002C41.6934 49.4769 41.6647 49.6964 41.6647 49.8585C41.6647 50.0494 41.7077 50.1973 41.7937 50.3023C41.8797 50.4072 42.0278 50.4597 42.2381 50.4597C42.5247 50.4597 42.7541 50.3595 42.9261 50.1591C43.0981 49.9492 43.2701 49.6296 43.4421 49.2002H44.0442C43.6906 50.2497 43.2797 50.9558 42.8114 51.3184C42.3528 51.6714 41.875 51.8479 41.378 51.8479Z" fill="#7F5539"/>
<path d="M44.8595 51.8479C44.4008 51.8479 44.0282 51.7048 43.7415 51.4186C43.4643 51.1323 43.3257 50.703 43.3257 50.1305C43.3257 49.892 43.364 49.5819 43.4404 49.2003L44.4152 44.6061H46.4793L45.4472 49.4721C45.4185 49.6153 45.4042 49.7488 45.4042 49.8729C45.4042 50.2641 45.5476 50.4597 45.8343 50.4597C46.1018 50.4597 46.3311 50.35 46.5223 50.1305C46.7134 49.9015 46.8663 49.5914 46.981 49.2003L47.9557 44.6061H50.0198L48.9878 49.4721C48.9496 49.6153 48.9304 49.7679 48.9304 49.9301C48.9304 50.1209 48.9734 50.2593 49.0595 50.3452C49.155 50.4215 49.3079 50.4597 49.5181 50.4597C49.7857 50.4597 50.0151 50.3452 50.2062 50.1162C50.4068 49.8872 50.5646 49.5819 50.6792 49.2003H51.2812C50.9277 50.2307 50.4881 50.932 49.9625 51.3041C49.4465 51.6666 48.9257 51.8479 48.4001 51.8479C47.9891 51.8479 47.6594 51.7334 47.411 51.5044C47.1721 51.2754 47.0287 50.9367 46.981 50.4883C46.6561 51.0131 46.3121 51.3709 45.9489 51.5617C45.5953 51.7525 45.2322 51.8479 44.8595 51.8479Z" fill="#7F5539"/>
<path d="M52.0967 51.8479C51.6379 51.8479 51.2653 51.7048 50.9786 51.4185C50.7015 51.1323 50.5629 50.7029 50.5629 50.1305C50.5629 49.892 50.6011 49.5819 50.6776 49.2002L51.5376 45.1786H51.0646L51.1793 44.6061H51.6523L52.0823 42.6311L54.2037 42.3448L53.7162 44.6061H54.5763L54.4619 45.1786H53.6017L52.6846 49.4721C52.6459 49.6152 52.6271 49.7679 52.6271 49.9301C52.6271 50.1209 52.6699 50.2593 52.7562 50.3452C52.8518 50.4215 53.0044 50.4596 53.2145 50.4596C53.492 50.4596 53.7496 50.3452 53.9889 50.1161C54.2278 49.8776 54.3997 49.5723 54.5047 49.2002H55.1068C54.7535 50.2307 54.2994 50.932 53.7449 51.3041C53.191 51.6666 52.6412 51.8479 52.0967 51.8479Z" fill="#7F5539"/>
<path d="M56.1331 51.8479C55.6742 51.8479 55.2875 51.7621 54.9719 51.5903C54.6568 51.409 54.4226 51.18 54.2695 50.9033C54.1169 50.6171 54.0401 50.3213 54.0401 50.016C54.0401 49.7012 54.1169 49.4292 54.2695 49.2002C54.4132 48.9617 54.5899 48.79 54.7999 48.685C55.1725 48.0171 55.4976 47.3445 55.7746 46.667C56.0521 45.9801 56.3149 45.2406 56.5631 44.4487L58.6848 44.1625C58.7324 45.3837 58.8134 46.7052 58.9284 48.1268C58.9759 48.6993 59 49.1144 59 49.372C59 49.954 58.8521 50.4311 58.5558 50.8032C58.2595 51.1753 57.8916 51.4424 57.4521 51.6046C57.022 51.7668 56.5825 51.8479 56.1331 51.8479ZM55.6742 50.7173C56.028 50.7173 56.3243 50.6123 56.5631 50.4024C56.802 50.1925 56.9216 49.8538 56.9216 49.3863C56.9216 49.1 56.8929 48.6993 56.8354 48.1841C56.7398 47.0964 56.6776 46.3665 56.6494 45.9944C56.42 46.7482 56.0327 47.6498 55.4882 48.6993C55.7077 48.8138 55.8179 48.9808 55.8179 49.2002C55.8179 49.3815 55.7558 49.5437 55.6314 49.6868C55.5169 49.83 55.3685 49.9015 55.1872 49.9015C54.9865 49.9015 54.8574 49.8395 54.7999 49.7155C54.7999 50.0589 54.8668 50.3118 55.0006 50.474C55.1438 50.6362 55.3685 50.7173 55.6742 50.7173Z" fill="#7F5539"/>
<path d="M34.1501 17.9556C31.4787 16.3721 28.2833 15.9074 25.2669 16.6636C22.2504 17.4197 19.6601 19.3349 18.0656 21.9877C16.4711 24.6406 16.0031 27.8138 16.7645 30.8093C17.526 33.8048 19.4545 36.3772 22.1259 37.9606L28.138 27.9581L34.1501 17.9556Z" fill="#E8C2CA"/>
<path d="M18.7536 43.4251C16.6919 42.2148 14.8918 40.6112 13.457 38.7069C12.0222 36.8025 10.9811 34.635 10.3937 32.3293C9.80626 30.0236 9.68413 27.6252 10.0343 25.2724C10.3846 22.9196 11.2002 20.6588 12.4341 18.6205C13.6681 16.5821 15.2961 14.8064 17.2243 13.3957C19.1526 11.9849 21.3428 10.9671 23.6689 10.4008C25.995 9.83452 28.411 9.73094 30.7775 10.0961C33.1442 10.4612 35.4146 11.2879 37.458 12.5283L34.2926 17.6707C32.9324 16.845 31.4211 16.2948 29.8458 16.0517C28.2705 15.8087 26.6623 15.8776 25.114 16.2546C23.5656 16.6315 22.1077 17.309 20.8243 18.2481C19.5407 19.1871 18.4571 20.3691 17.6357 21.7259C16.8143 23.0827 16.2714 24.5876 16.0383 26.1537C15.8052 27.7198 15.8865 29.3163 16.2775 30.851C16.6685 32.3858 17.3615 33.8286 18.3166 35.0962C19.2716 36.3638 20.4698 37.4312 21.8422 38.2368L18.7536 43.4251Z" fill="#D1B3C4"/>
<path d="M13.7555 51.9642C7.35909 48.1708 2.73947 42.0122 0.910446 34.84C-0.91858 27.6678 0.192395 20.068 3.99956 13.7083C7.80674 7.34868 13.9991 2.74872 21.2176 0.917958C28.4362 -0.912805 36.0913 0.175167 42.503 3.94312L37.7133 11.9809C33.4454 9.47285 28.3498 8.74864 23.5449 9.96726C18.7399 11.1859 14.6181 14.2478 12.0838 18.481C9.54967 22.7143 8.81015 27.773 10.0276 32.5471C11.2451 37.3212 14.3201 41.4206 18.5778 43.9457L13.7555 51.9642Z" fill="#B392AC"/>
</g>
<defs>
<clipPath id="clip0_126_4">
<rect width="59" height="52" fill="white"/>
</clipPath>
</defs>
</svg>
